<svg version="1.1" xmlns="http://www.w3.org/2000/svg" viewBox="0 0 250 250"><desc>Created with Snap</desc><defs></defs><g transform="matrix(0.0372,0,0,0.0372,125.3122,139.1676)"><g transform="matrix(3.7178,0,0,3.7178,-3211.1533,-1954.2856)">
<g>
	<path fill-rule="evenodd" clip-rule="evenodd" d="M694.13,268.89l106.74,97.54c9.27,8.48,3.09,23.76-9.22,23.77l-40.01,0.07v104.07
		c0,7.59-6.15,13.74-13.75,13.74H631.9c-7.58,0-13.74-6.15-13.74-13.74V390.27h-40.01c-13.25,0-18.67-16.91-8.24-24.74l105.76-96.64
		C680.94,264.07,688.96,264.16,694.13,268.89L694.13,268.89z M419.11,225.77c50.16,0,90.82,40.66,90.82,90.83
		c0,50.16-40.66,90.82-90.82,90.82c-50.17,0-90.83-40.66-90.83-90.82C328.28,266.43,368.94,225.77,419.11,225.77L419.11,225.77z
		 M372.96,336.58l22.36-2.22c1.82,10.13,6.19,16.9,13.95,19.93v-31.66c-16.64-4.74-32.03-13.06-32.03-33.1
		c0-19.32,15.18-28.68,32.03-31.11v-12.87h19.67v12.91c18.22,2.58,32.23,12.56,32.99,34.03l-23,0.8
		c-1.33-7.98-4.56-12.56-9.99-14.78v25.35c19.77,5.07,36.32,12.55,36.32,36.47c0,22.43-17.21,32.29-36.32,34.57v12.75h-19.67v-12.9
		C388.75,371.91,375.76,360.08,372.96,336.58z M428.94,354.96c7.08-1.86,13.32-6.25,13.32-14.49c0-6.87-6.22-10.58-13.32-12.92
		V354.96z M409.27,277.91c-5.33,1.39-10.15,4.34-10.15,10.09c0,5.09,4.67,8.36,10.15,10.56V277.91z M419.11,188.15
		c70.93,0,128.44,57.51,128.44,128.45s-57.51,128.45-128.44,128.45S290.66,387.54,290.66,316.6S348.18,188.15,419.11,188.15
		L419.11,188.15z M419.11,215.63c-55.77,0-100.97,45.2-100.97,100.97c0,55.76,45.2,100.96,100.97,100.96s100.96-45.2,100.96-100.96
		C520.07,260.83,474.88,215.63,419.11,215.63L419.11,215.63z M503.61,528.14v-23.97H334.6v23.97H503.61L503.61,528.14z
		 M307.12,490.43c0-7.59,6.15-13.74,13.74-13.74h196.49c7.6,0,13.74,6.15,13.74,13.74c0,51.45,0,102.91,0,154.36
		c0,7.59-6.14,13.73-13.74,13.73H320.86c-7.59,0-13.74-6.14-13.74-13.73C307.12,593.34,307.12,541.88,307.12,490.43L307.12,490.43z
		 M503.61,555.62H334.6v23.98h169.01V555.62z M334.6,631.05h169.01v-23.97H334.6V631.05z M586.65,528.14h196.5
		c7.58,0,13.74,6.16,13.74,13.74v102.91c0,7.59-6.16,13.73-13.74,13.73h-196.5c-7.59,0-13.74-6.14-13.74-13.73V541.88
		C572.91,534.3,579.06,528.14,586.65,528.14z M769.41,555.62H600.39v23.98h169.02V555.62z M600.39,631.05h169.02v-23.97H600.39
		V631.05z M265.3,644.79c0,7.59-6.15,13.73-13.74,13.73H55.06c-7.58,0-13.74-6.14-13.74-13.73c0-137.21,0-274.42,0-411.62
		c0-7.59,6.16-13.74,13.74-13.74h196.5c7.59,0,13.74,6.15,13.74,13.74C265.3,370.37,265.3,507.58,265.3,644.79z M68.8,452.72v23.97
		h169.02v-23.97H68.8z M237.82,528.14v-23.97H68.8v23.97H237.82z M237.82,555.62H68.8v23.98h169.02V555.62z M68.8,631.05h169.02
		v-23.97H68.8V631.05z M68.8,425.24h169.02v-23.97H68.8V425.24z M68.8,349.81v23.97h169.02v-23.97H68.8z M68.8,322.33h169.02v-23.97
		H68.8V322.33z M237.82,246.91H68.8v23.97h169.02V246.91L237.82,246.91z" fill="#840707" style=""></path>
</g>
<desc>Created with Snap</desc><defs></defs></g><g><g transform="matrix(0.512,0,0,-0.512,0,0)"><path d="M1110 0L176 0L176 1486L1040 1486L1040 1306L412 1306L412 854L878 854L878 676L412 676L412 184L1110 184L1110 0ZM1619 0L1383 0L1383 1486L1619 1486L1619 0ZM1918 736Q1918 929 1972 1072Q2026 1216 2121 1311Q2217 1407 2344 1454Q2471 1502 2617 1502Q2729 1502 2796 1492Q2864 1483 2916 1469Q2969 1456 3034 1444L3024 1235Q2953 1271 2861 1294Q2770 1318 2606 1318Q2476 1318 2375 1252Q2275 1186 2218 1062Q2161 938 2161 762Q2161 594 2209 458Q2257 322 2355 242Q2454 163 2606 163Q2687 163 2768 176Q2850 189 2892 216L2892 610L2951 569L2630 583L2630 754L3118 754L3118 91Q3085 89 3044 72Q3003 56 2946 35Q2889 15 2807 -1Q2726 -16 2612 -16Q2391 -16 2236 81Q2081 179 1999 349Q1918 519 1918 736ZM3644 0L3408 0L3408 1486L3644 1486L3644 840L4322 840L4322 1486L4556 1486L4556 0L4322 0L4322 660L3644 660L3644 0ZM5482 0L5246 0L5246 1306L4788 1306L4788 1486L5939 1486L5939 1306L5482 1306L5482 0Z" fill="#500202" style=""></path></g></g></g></svg>